<?xml version="1.0" encoding="UTF-8" standalone="no"?>
<!DOCTYPE svg PUBLIC "-//W3C//DTD SVG 1.1//EN"
 "http://www.w3.org/Graphics/SVG/1.1/DTD/svg11.dtd">
<!-- Generated by graphviz version 2.38.0 (20140413.2041)
 -->
<!-- Title: controllers_diagram Pages: 1 -->
<svg width="1160pt" height="1124pt"
 viewBox="0.00 0.00 1159.56 1124.00" xmlns="http://www.w3.org/2000/svg" xmlns:xlink="http://www.w3.org/1999/xlink">
<g id="graph0" class="graph" transform="scale(1 1) rotate(0) translate(497.714 626.5)">
<title>controllers_diagram</title>
<polygon fill="white" stroke="none" points="-497.714,497.5 -497.714,-626.5 661.849,-626.5 661.849,497.5 -497.714,497.5"/>
<!-- _diagram_info -->
<g id="node1" class="node"><title>_diagram_info</title>
<text text-anchor="start" x="8.31226" y="415.9" font-family="Times,serif" font-size="13.00">Controllers diagram</text>
<text text-anchor="start" x="8.31226" y="428.9" font-family="Times,serif" font-size="13.00">Date: Dec 05 2014 &#45; 12:13</text>
<text text-anchor="start" x="8.31226" y="441.9" font-family="Times,serif" font-size="13.00">Migration version: 20141204222124</text>
<text text-anchor="start" x="8.31226" y="454.9" font-family="Times,serif" font-size="13.00">Generated by RailRoady 1.2.0</text>
<text text-anchor="start" x="8.31226" y="467.9" font-family="Times,serif" font-size="13.00">http://railroady.prestonlee.com</text>
</g>
<!-- Admin::BaseController -->
<g id="node2" class="node"><title>Admin::BaseController</title>
<path fill="none" stroke="black" d="M-481.714,75C-481.714,75 -358.286,75 -358.286,75 -352.286,75 -346.286,69 -346.286,63 -346.286,63 -346.286,-5 -346.286,-5 -346.286,-11 -352.286,-17 -358.286,-17 -358.286,-17 -481.714,-17 -481.714,-17 -487.714,-17 -493.714,-11 -493.714,-5 -493.714,-5 -493.714,63 -493.714,63 -493.714,69 -487.714,75 -481.714,75"/>
<text text-anchor="middle" x="-420" y="-1.8" font-family="Times,serif" font-size="14.00">Admin::BaseController</text>
<polyline fill="none" stroke="black" points="-493.714,5 -346.286,5 "/>
<polyline fill="none" stroke="black" points="-493.714,29 -346.286,29 "/>
<polyline fill="none" stroke="black" points="-493.714,53 -346.286,53 "/>
<text text-anchor="start" x="-485.714" y="68.2" font-family="Times,serif" font-size="14.00">_layout</text>
</g>
<!-- Admin::CategoriesController -->
<g id="node3" class="node"><title>Admin::CategoriesController</title>
<path fill="none" stroke="black" d="M-64.0415,-134C-64.0415,-134 92.0415,-134 92.0415,-134 98.0415,-134 104.042,-140 104.042,-146 104.042,-146 104.042,-324 104.042,-324 104.042,-330 98.0415,-336 92.0415,-336 92.0415,-336 -64.0415,-336 -64.0415,-336 -70.0415,-336 -76.0415,-330 -76.0415,-324 -76.0415,-324 -76.0415,-146 -76.0415,-146 -76.0415,-140 -70.0415,-134 -64.0415,-134"/>
<text text-anchor="middle" x="14" y="-320.8" font-family="Times,serif" font-size="14.00">Admin::CategoriesController</text>
<polyline fill="none" stroke="black" points="-76.0415,-314 104.042,-314 "/>
<text text-anchor="start" x="-68.0415" y="-298.8" font-family="Times,serif" font-size="14.00">create</text>
<text text-anchor="start" x="-68.0415" y="-284.8" font-family="Times,serif" font-size="14.00">destroy</text>
<text text-anchor="start" x="-68.0415" y="-270.8" font-family="Times,serif" font-size="14.00">edit</text>
<text text-anchor="start" x="-68.0415" y="-256.8" font-family="Times,serif" font-size="14.00">index</text>
<text text-anchor="start" x="-68.0415" y="-242.8" font-family="Times,serif" font-size="14.00">new</text>
<text text-anchor="start" x="-68.0415" y="-228.8" font-family="Times,serif" font-size="14.00">show</text>
<text text-anchor="start" x="-68.0415" y="-214.8" font-family="Times,serif" font-size="14.00">update</text>
<polyline fill="none" stroke="black" points="-76.0415,-208 104.042,-208 "/>
<polyline fill="none" stroke="black" points="-76.0415,-184 104.042,-184 "/>
<text text-anchor="start" x="-68.0415" y="-168.8" font-family="Times,serif" font-size="14.00">_layout</text>
<text text-anchor="start" x="-68.0415" y="-154.8" font-family="Times,serif" font-size="14.00">category_params</text>
<text text-anchor="start" x="-68.0415" y="-140.8" font-family="Times,serif" font-size="14.00">set_category</text>
</g>
<!-- Admin::GalleriesController -->
<g id="node4" class="node"><title>Admin::GalleriesController</title>
<path fill="none" stroke="black" d="M-292.373,246C-292.373,246 -145.627,246 -145.627,246 -139.627,246 -133.627,240 -133.627,234 -133.627,234 -133.627,56 -133.627,56 -133.627,50 -139.627,44 -145.627,44 -145.627,44 -292.373,44 -292.373,44 -298.373,44 -304.373,50 -304.373,56 -304.373,56 -304.373,234 -304.373,234 -304.373,240 -298.373,246 -292.373,246"/>
<text text-anchor="middle" x="-219" y="59.2" font-family="Times,serif" font-size="14.00">Admin::GalleriesController</text>
<polyline fill="none" stroke="black" points="-304.373,66 -133.627,66 "/>
<text text-anchor="start" x="-296.373" y="81.2" font-family="Times,serif" font-size="14.00">create</text>
<text text-anchor="start" x="-296.373" y="95.2" font-family="Times,serif" font-size="14.00">destroy</text>
<text text-anchor="start" x="-296.373" y="109.2" font-family="Times,serif" font-size="14.00">edit</text>
<text text-anchor="start" x="-296.373" y="123.2" font-family="Times,serif" font-size="14.00">index</text>
<text text-anchor="start" x="-296.373" y="137.2" font-family="Times,serif" font-size="14.00">new</text>
<text text-anchor="start" x="-296.373" y="151.2" font-family="Times,serif" font-size="14.00">show</text>
<text text-anchor="start" x="-296.373" y="165.2" font-family="Times,serif" font-size="14.00">update</text>
<polyline fill="none" stroke="black" points="-304.373,172 -133.627,172 "/>
<polyline fill="none" stroke="black" points="-304.373,196 -133.627,196 "/>
<text text-anchor="start" x="-296.373" y="211.2" font-family="Times,serif" font-size="14.00">_layout</text>
<text text-anchor="start" x="-296.373" y="225.2" font-family="Times,serif" font-size="14.00">gallery_params</text>
<text text-anchor="start" x="-296.373" y="239.2" font-family="Times,serif" font-size="14.00">set_gallery</text>
</g>
<!-- Admin::LocationsController -->
<g id="node5" class="node"><title>Admin::LocationsController</title>
<path fill="none" stroke="black" d="M-272.71,-286C-272.71,-286 -121.29,-286 -121.29,-286 -115.29,-286 -109.29,-292 -109.29,-298 -109.29,-298 -109.29,-476 -109.29,-476 -109.29,-482 -115.29,-488 -121.29,-488 -121.29,-488 -272.71,-488 -272.71,-488 -278.71,-488 -284.71,-482 -284.71,-476 -284.71,-476 -284.71,-298 -284.71,-298 -284.71,-292 -278.71,-286 -272.71,-286"/>
<text text-anchor="middle" x="-197" y="-472.8" font-family="Times,serif" font-size="14.00">Admin::LocationsController</text>
<polyline fill="none" stroke="black" points="-284.71,-466 -109.29,-466 "/>
<text text-anchor="start" x="-276.71" y="-450.8" font-family="Times,serif" font-size="14.00">create</text>
<text text-anchor="start" x="-276.71" y="-436.8" font-family="Times,serif" font-size="14.00">destroy</text>
<text text-anchor="start" x="-276.71" y="-422.8" font-family="Times,serif" font-size="14.00">edit</text>
<text text-anchor="start" x="-276.71" y="-408.8" font-family="Times,serif" font-size="14.00">index</text>
<text text-anchor="start" x="-276.71" y="-394.8" font-family="Times,serif" font-size="14.00">new</text>
<text text-anchor="start" x="-276.71" y="-380.8" font-family="Times,serif" font-size="14.00">show</text>
<text text-anchor="start" x="-276.71" y="-366.8" font-family="Times,serif" font-size="14.00">update</text>
<polyline fill="none" stroke="black" points="-284.71,-360 -109.29,-360 "/>
<polyline fill="none" stroke="black" points="-284.71,-336 -109.29,-336 "/>
<text text-anchor="start" x="-276.71" y="-320.8" font-family="Times,serif" font-size="14.00">_layout</text>
<text text-anchor="start" x="-276.71" y="-306.8" font-family="Times,serif" font-size="14.00">location_params</text>
<text text-anchor="start" x="-276.71" y="-292.8" font-family="Times,serif" font-size="14.00">set_location</text>
</g>
<!-- Admin::ManagersController -->
<g id="node6" class="node"><title>Admin::ManagersController</title>
<path fill="none" stroke="black" d="M-82.707,113C-82.707,113 68.707,113 68.707,113 74.707,113 80.707,107 80.707,101 80.707,101 80.707,-77 80.707,-77 80.707,-83 74.707,-89 68.707,-89 68.707,-89 -82.707,-89 -82.707,-89 -88.707,-89 -94.707,-83 -94.707,-77 -94.707,-77 -94.707,101 -94.707,101 -94.707,107 -88.707,113 -82.707,113"/>
<text text-anchor="middle" x="-7" y="-73.8" font-family="Times,serif" font-size="14.00">Admin::ManagersController</text>
<polyline fill="none" stroke="black" points="-94.707,-67 80.707,-67 "/>
<text text-anchor="start" x="-86.707" y="-51.8" font-family="Times,serif" font-size="14.00">create</text>
<text text-anchor="start" x="-86.707" y="-37.8" font-family="Times,serif" font-size="14.00">destroy</text>
<text text-anchor="start" x="-86.707" y="-23.8" font-family="Times,serif" font-size="14.00">edit</text>
<text text-anchor="start" x="-86.707" y="-9.8" font-family="Times,serif" font-size="14.00">index</text>
<text text-anchor="start" x="-86.707" y="4.2" font-family="Times,serif" font-size="14.00">new</text>
<text text-anchor="start" x="-86.707" y="18.2" font-family="Times,serif" font-size="14.00">show</text>
<text text-anchor="start" x="-86.707" y="32.2" font-family="Times,serif" font-size="14.00">update</text>
<polyline fill="none" stroke="black" points="-94.707,39 80.707,39 "/>
<polyline fill="none" stroke="black" points="-94.707,63 80.707,63 "/>
<text text-anchor="start" x="-86.707" y="78.2" font-family="Times,serif" font-size="14.00">_layout</text>
<text text-anchor="start" x="-86.707" y="92.2" font-family="Times,serif" font-size="14.00">manager_params</text>
<text text-anchor="start" x="-86.707" y="106.2" font-family="Times,serif" font-size="14.00">set_manager</text>
</g>
<!-- Admin::PartnersController -->
<g id="node7" class="node"><title>Admin::PartnersController</title>
<path fill="none" stroke="black" d="M334.955,322C334.955,322 477.045,322 477.045,322 483.045,322 489.045,316 489.045,310 489.045,310 489.045,132 489.045,132 489.045,126 483.045,120 477.045,120 477.045,120 334.955,120 334.955,120 328.955,120 322.955,126 322.955,132 322.955,132 322.955,310 322.955,310 322.955,316 328.955,322 334.955,322"/>
<text text-anchor="middle" x="406" y="135.2" font-family="Times,serif" font-size="14.00">Admin::PartnersController</text>
<polyline fill="none" stroke="black" points="322.955,142 489.045,142 "/>
<text text-anchor="start" x="330.955" y="157.2" font-family="Times,serif" font-size="14.00">create</text>
<text text-anchor="start" x="330.955" y="171.2" font-family="Times,serif" font-size="14.00">destroy</text>
<text text-anchor="start" x="330.955" y="185.2" font-family="Times,serif" font-size="14.00">edit</text>
<text text-anchor="start" x="330.955" y="199.2" font-family="Times,serif" font-size="14.00">index</text>
<text text-anchor="start" x="330.955" y="213.2" font-family="Times,serif" font-size="14.00">new</text>
<text text-anchor="start" x="330.955" y="227.2" font-family="Times,serif" font-size="14.00">show</text>
<text text-anchor="start" x="330.955" y="241.2" font-family="Times,serif" font-size="14.00">update</text>
<polyline fill="none" stroke="black" points="322.955,248 489.045,248 "/>
<polyline fill="none" stroke="black" points="322.955,272 489.045,272 "/>
<text text-anchor="start" x="330.955" y="287.2" font-family="Times,serif" font-size="14.00">_layout</text>
<text text-anchor="start" x="330.955" y="301.2" font-family="Times,serif" font-size="14.00">partner_params</text>
<text text-anchor="start" x="330.955" y="315.2" font-family="Times,serif" font-size="14.00">set_partner</text>
</g>
<!-- Admin::PhotosController -->
<g id="node8" class="node"><title>Admin::PhotosController</title>
<path fill="none" stroke="black" d="M-273.169,-1C-273.169,-1 -138.831,-1 -138.831,-1 -132.831,-1 -126.831,-7 -126.831,-13 -126.831,-13 -126.831,-191 -126.831,-191 -126.831,-197 -132.831,-203 -138.831,-203 -138.831,-203 -273.169,-203 -273.169,-203 -279.169,-203 -285.169,-197 -285.169,-191 -285.169,-191 -285.169,-13 -285.169,-13 -285.169,-7 -279.169,-1 -273.169,-1"/>
<text text-anchor="middle" x="-206" y="-187.8" font-family="Times,serif" font-size="14.00">Admin::PhotosController</text>
<polyline fill="none" stroke="black" points="-285.169,-181 -126.831,-181 "/>
<text text-anchor="start" x="-277.169" y="-165.8" font-family="Times,serif" font-size="14.00">create</text>
<text text-anchor="start" x="-277.169" y="-151.8" font-family="Times,serif" font-size="14.00">destroy</text>
<text text-anchor="start" x="-277.169" y="-137.8" font-family="Times,serif" font-size="14.00">edit</text>
<text text-anchor="start" x="-277.169" y="-123.8" font-family="Times,serif" font-size="14.00">index</text>
<text text-anchor="start" x="-277.169" y="-109.8" font-family="Times,serif" font-size="14.00">new</text>
<text text-anchor="start" x="-277.169" y="-95.8" font-family="Times,serif" font-size="14.00">show</text>
<text text-anchor="start" x="-277.169" y="-81.8" font-family="Times,serif" font-size="14.00">update</text>
<polyline fill="none" stroke="black" points="-285.169,-75 -126.831,-75 "/>
<polyline fill="none" stroke="black" points="-285.169,-51 -126.831,-51 "/>
<text text-anchor="start" x="-277.169" y="-35.8" font-family="Times,serif" font-size="14.00">_layout</text>
<text text-anchor="start" x="-277.169" y="-21.8" font-family="Times,serif" font-size="14.00">photo_params</text>
<text text-anchor="start" x="-277.169" y="-7.8" font-family="Times,serif" font-size="14.00">set_photo</text>
</g>
<!-- Admin::SliderAdsController -->
<g id="node9" class="node"><title>Admin::SliderAdsController</title>
<path fill="none" stroke="black" d="M144.893,-134C144.893,-134 297.107,-134 297.107,-134 303.107,-134 309.107,-140 309.107,-146 309.107,-146 309.107,-324 309.107,-324 309.107,-330 303.107,-336 297.107,-336 297.107,-336 144.893,-336 144.893,-336 138.893,-336 132.893,-330 132.893,-324 132.893,-324 132.893,-146 132.893,-146 132.893,-140 138.893,-134 144.893,-134"/>
<text text-anchor="middle" x="221" y="-320.8" font-family="Times,serif" font-size="14.00">Admin::SliderAdsController</text>
<polyline fill="none" stroke="black" points="132.893,-314 309.107,-314 "/>
<text text-anchor="start" x="140.893" y="-298.8" font-family="Times,serif" font-size="14.00">create</text>
<text text-anchor="start" x="140.893" y="-284.8" font-family="Times,serif" font-size="14.00">destroy</text>
<text text-anchor="start" x="140.893" y="-270.8" font-family="Times,serif" font-size="14.00">edit</text>
<text text-anchor="start" x="140.893" y="-256.8" font-family="Times,serif" font-size="14.00">index</text>
<text text-anchor="start" x="140.893" y="-242.8" font-family="Times,serif" font-size="14.00">new</text>
<text text-anchor="start" x="140.893" y="-228.8" font-family="Times,serif" font-size="14.00">show</text>
<text text-anchor="start" x="140.893" y="-214.8" font-family="Times,serif" font-size="14.00">update</text>
<polyline fill="none" stroke="black" points="132.893,-208 309.107,-208 "/>
<polyline fill="none" stroke="black" points="132.893,-184 309.107,-184 "/>
<text text-anchor="start" x="140.893" y="-168.8" font-family="Times,serif" font-size="14.00">_layout</text>
<text text-anchor="start" x="140.893" y="-154.8" font-family="Times,serif" font-size="14.00">set_slider_ad</text>
<text text-anchor="start" x="140.893" y="-140.8" font-family="Times,serif" font-size="14.00">slider_ad_params</text>
</g>
<!-- Admin::StaticController -->
<g id="node10" class="node"><title>Admin::StaticController</title>
<path fill="none" stroke="black" d="M-463.048,-58C-463.048,-58 -334.952,-58 -334.952,-58 -328.952,-58 -322.952,-64 -322.952,-70 -322.952,-70 -322.952,-136 -322.952,-136 -322.952,-142 -328.952,-148 -334.952,-148 -334.952,-148 -463.048,-148 -463.048,-148 -469.048,-148 -475.048,-142 -475.048,-136 -475.048,-136 -475.048,-70 -475.048,-70 -475.048,-64 -469.048,-58 -463.048,-58"/>
<text text-anchor="middle" x="-399" y="-132.8" font-family="Times,serif" font-size="14.00">Admin::StaticController</text>
<polyline fill="none" stroke="black" points="-475.048,-126 -322.952,-126 "/>
<text text-anchor="start" x="-467.048" y="-110.8" font-family="Times,serif" font-size="14.00">home</text>
<polyline fill="none" stroke="black" points="-475.048,-104 -322.952,-104 "/>
<polyline fill="none" stroke="black" points="-475.048,-80 -322.952,-80 "/>
<text text-anchor="start" x="-467.048" y="-64.8" font-family="Times,serif" font-size="14.00">_layout</text>
</g>
<!-- Admin::VideosController -->
<g id="node11" class="node"><title>Admin::VideosController</title>
<path fill="none" stroke="black" d="M354.479,75C354.479,75 489.521,75 489.521,75 495.521,75 501.521,69 501.521,63 501.521,63 501.521,-115 501.521,-115 501.521,-121 495.521,-127 489.521,-127 489.521,-127 354.479,-127 354.479,-127 348.479,-127 342.479,-121 342.479,-115 342.479,-115 342.479,63 342.479,63 342.479,69 348.479,75 354.479,75"/>
<text text-anchor="middle" x="422" y="-111.8" font-family="Times,serif" font-size="14.00">Admin::VideosController</text>
<polyline fill="none" stroke="black" points="342.479,-105 501.521,-105 "/>
<text text-anchor="start" x="350.479" y="-89.8" font-family="Times,serif" font-size="14.00">create</text>
<text text-anchor="start" x="350.479" y="-75.8" font-family="Times,serif" font-size="14.00">destroy</text>
<text text-anchor="start" x="350.479" y="-61.8" font-family="Times,serif" font-size="14.00">edit</text>
<text text-anchor="start" x="350.479" y="-47.8" font-family="Times,serif" font-size="14.00">index</text>
<text text-anchor="start" x="350.479" y="-33.8" font-family="Times,serif" font-size="14.00">new</text>
<text text-anchor="start" x="350.479" y="-19.8" font-family="Times,serif" font-size="14.00">show</text>
<text text-anchor="start" x="350.479" y="-5.8" font-family="Times,serif" font-size="14.00">update</text>
<polyline fill="none" stroke="black" points="342.479,1 501.521,1 "/>
<polyline fill="none" stroke="black" points="342.479,25 501.521,25 "/>
<text text-anchor="start" x="350.479" y="40.2" font-family="Times,serif" font-size="14.00">_layout</text>
<text text-anchor="start" x="350.479" y="54.2" font-family="Times,serif" font-size="14.00">set_video</text>
<text text-anchor="start" x="350.479" y="68.2" font-family="Times,serif" font-size="14.00">video_params</text>
</g>
<!-- App::BaseController -->
<g id="node12" class="node"><title>App::BaseController</title>
<path fill="none" stroke="black" d="M-463.324,208C-463.324,208 -354.676,208 -354.676,208 -348.676,208 -342.676,202 -342.676,196 -342.676,196 -342.676,128 -342.676,128 -342.676,122 -348.676,116 -354.676,116 -354.676,116 -463.324,116 -463.324,116 -469.324,116 -475.324,122 -475.324,128 -475.324,128 -475.324,196 -475.324,196 -475.324,202 -469.324,208 -463.324,208"/>
<text text-anchor="middle" x="-409" y="131.2" font-family="Times,serif" font-size="14.00">App::BaseController</text>
<polyline fill="none" stroke="black" points="-475.324,138 -342.676,138 "/>
<polyline fill="none" stroke="black" points="-475.324,162 -342.676,162 "/>
<polyline fill="none" stroke="black" points="-475.324,186 -342.676,186 "/>
<text text-anchor="start" x="-467.324" y="201.2" font-family="Times,serif" font-size="14.00">_layout</text>
</g>
<!-- App::CategoriesController -->
<g id="node13" class="node"><title>App::CategoriesController</title>
<path fill="none" stroke="black" d="M297.348,474C297.348,474 438.652,474 438.652,474 444.652,474 450.652,468 450.652,462 450.652,462 450.652,368 450.652,368 450.652,362 444.652,356 438.652,356 438.652,356 297.348,356 297.348,356 291.348,356 285.348,362 285.348,368 285.348,368 285.348,462 285.348,462 285.348,468 291.348,474 297.348,474"/>
<text text-anchor="middle" x="368" y="371.2" font-family="Times,serif" font-size="14.00">App::CategoriesController</text>
<polyline fill="none" stroke="black" points="285.348,378 450.652,378 "/>
<text text-anchor="start" x="293.348" y="393.2" font-family="Times,serif" font-size="14.00">index</text>
<text text-anchor="start" x="293.348" y="407.2" font-family="Times,serif" font-size="14.00">show</text>
<polyline fill="none" stroke="black" points="285.348,414 450.652,414 "/>
<polyline fill="none" stroke="black" points="285.348,438 450.652,438 "/>
<text text-anchor="start" x="293.348" y="453.2" font-family="Times,serif" font-size="14.00">_layout</text>
<text text-anchor="start" x="293.348" y="467.2" font-family="Times,serif" font-size="14.00">search_params</text>
</g>
<!-- App::GalleriesController -->
<g id="node14" class="node"><title>App::GalleriesController</title>
<path fill="none" stroke="black" d="M-82.9829,360C-82.9829,360 48.9829,360 48.9829,360 54.9829,360 60.9829,354 60.9829,348 60.9829,348 60.9829,170 60.9829,170 60.9829,164 54.9829,158 48.9829,158 48.9829,158 -82.9829,158 -82.9829,158 -88.9829,158 -94.9829,164 -94.9829,170 -94.9829,170 -94.9829,348 -94.9829,348 -94.9829,354 -88.9829,360 -82.9829,360"/>
<text text-anchor="middle" x="-17" y="173.2" font-family="Times,serif" font-size="14.00">App::GalleriesController</text>
<polyline fill="none" stroke="black" points="-94.9829,180 60.9829,180 "/>
<text text-anchor="start" x="-86.9829" y="195.2" font-family="Times,serif" font-size="14.00">create</text>
<text text-anchor="start" x="-86.9829" y="209.2" font-family="Times,serif" font-size="14.00">destroy</text>
<text text-anchor="start" x="-86.9829" y="223.2" font-family="Times,serif" font-size="14.00">edit</text>
<text text-anchor="start" x="-86.9829" y="237.2" font-family="Times,serif" font-size="14.00">index</text>
<text text-anchor="start" x="-86.9829" y="251.2" font-family="Times,serif" font-size="14.00">new</text>
<text text-anchor="start" x="-86.9829" y="265.2" font-family="Times,serif" font-size="14.00">show</text>
<text text-anchor="start" x="-86.9829" y="279.2" font-family="Times,serif" font-size="14.00">update</text>
<polyline fill="none" stroke="black" points="-94.9829,286 60.9829,286 "/>
<polyline fill="none" stroke="black" points="-94.9829,310 60.9829,310 "/>
<text text-anchor="start" x="-86.9829" y="325.2" font-family="Times,serif" font-size="14.00">_layout</text>
<text text-anchor="start" x="-86.9829" y="339.2" font-family="Times,serif" font-size="14.00">gallery_params</text>
<text text-anchor="start" x="-86.9829" y="353.2" font-family="Times,serif" font-size="14.00">set_gallery</text>
</g>
<!-- App::PartnersController -->
<g id="node15" class="node"><title>App::PartnersController</title>
<path fill="none" stroke="black" d="M-462.655,-476C-462.655,-476 -335.345,-476 -335.345,-476 -329.345,-476 -323.345,-482 -323.345,-488 -323.345,-488 -323.345,-610 -323.345,-610 -323.345,-616 -329.345,-622 -335.345,-622 -335.345,-622 -462.655,-622 -462.655,-622 -468.655,-622 -474.655,-616 -474.655,-610 -474.655,-610 -474.655,-488 -474.655,-488 -474.655,-482 -468.655,-476 -462.655,-476"/>
<text text-anchor="middle" x="-399" y="-606.8" font-family="Times,serif" font-size="14.00">App::PartnersController</text>
<polyline fill="none" stroke="black" points="-474.655,-600 -323.345,-600 "/>
<text text-anchor="start" x="-466.655" y="-584.8" font-family="Times,serif" font-size="14.00">cooperate</text>
<text text-anchor="start" x="-466.655" y="-570.8" font-family="Times,serif" font-size="14.00">create</text>
<text text-anchor="start" x="-466.655" y="-556.8" font-family="Times,serif" font-size="14.00">show</text>
<polyline fill="none" stroke="black" points="-474.655,-550 -323.345,-550 "/>
<polyline fill="none" stroke="black" points="-474.655,-526 -323.345,-526 "/>
<text text-anchor="start" x="-466.655" y="-510.8" font-family="Times,serif" font-size="14.00">_layout</text>
<text text-anchor="start" x="-466.655" y="-496.8" font-family="Times,serif" font-size="14.00">partner_params</text>
<text text-anchor="start" x="-466.655" y="-482.8" font-family="Times,serif" font-size="14.00">set_partner</text>
</g>
<!-- App::PhotosController -->
<g id="node16" class="node"><title>App::PhotosController</title>
<path fill="none" stroke="black" d="M183.221,-381C183.221,-381 302.779,-381 302.779,-381 308.779,-381 314.779,-387 314.779,-393 314.779,-393 314.779,-571 314.779,-571 314.779,-577 308.779,-583 302.779,-583 302.779,-583 183.221,-583 183.221,-583 177.221,-583 171.221,-577 171.221,-571 171.221,-571 171.221,-393 171.221,-393 171.221,-387 177.221,-381 183.221,-381"/>
<text text-anchor="middle" x="243" y="-567.8" font-family="Times,serif" font-size="14.00">App::PhotosController</text>
<polyline fill="none" stroke="black" points="171.221,-561 314.779,-561 "/>
<text text-anchor="start" x="179.221" y="-545.8" font-family="Times,serif" font-size="14.00">create</text>
<text text-anchor="start" x="179.221" y="-531.8" font-family="Times,serif" font-size="14.00">destroy</text>
<text text-anchor="start" x="179.221" y="-517.8" font-family="Times,serif" font-size="14.00">edit</text>
<text text-anchor="start" x="179.221" y="-503.8" font-family="Times,serif" font-size="14.00">index</text>
<text text-anchor="start" x="179.221" y="-489.8" font-family="Times,serif" font-size="14.00">new</text>
<text text-anchor="start" x="179.221" y="-475.8" font-family="Times,serif" font-size="14.00">show</text>
<text text-anchor="start" x="179.221" y="-461.8" font-family="Times,serif" font-size="14.00">update</text>
<polyline fill="none" stroke="black" points="171.221,-455 314.779,-455 "/>
<polyline fill="none" stroke="black" points="171.221,-431 314.779,-431 "/>
<text text-anchor="start" x="179.221" y="-415.8" font-family="Times,serif" font-size="14.00">_layout</text>
<text text-anchor="start" x="179.221" y="-401.8" font-family="Times,serif" font-size="14.00">photo_params</text>
<text text-anchor="start" x="179.221" y="-387.8" font-family="Times,serif" font-size="14.00">set_photo</text>
</g>
<!-- App::StaticController -->
<g id="node17" class="node"><title>App::StaticController</title>
<path fill="none" stroke="black" d="M-443.659,-324C-443.659,-324 -330.341,-324 -330.341,-324 -324.341,-324 -318.341,-330 -318.341,-336 -318.341,-336 -318.341,-430 -318.341,-430 -318.341,-436 -324.341,-442 -330.341,-442 -330.341,-442 -443.659,-442 -443.659,-442 -449.659,-442 -455.659,-436 -455.659,-430 -455.659,-430 -455.659,-336 -455.659,-336 -455.659,-330 -449.659,-324 -443.659,-324"/>
<text text-anchor="middle" x="-387" y="-426.8" font-family="Times,serif" font-size="14.00">App::StaticController</text>
<polyline fill="none" stroke="black" points="-455.659,-420 -318.341,-420 "/>
<text text-anchor="start" x="-447.659" y="-404.8" font-family="Times,serif" font-size="14.00">about_us</text>
<text text-anchor="start" x="-447.659" y="-390.8" font-family="Times,serif" font-size="14.00">empty</text>
<text text-anchor="start" x="-447.659" y="-376.8" font-family="Times,serif" font-size="14.00">home</text>
<polyline fill="none" stroke="black" points="-455.659,-370 -318.341,-370 "/>
<polyline fill="none" stroke="black" points="-455.659,-346 -318.341,-346 "/>
<text text-anchor="start" x="-447.659" y="-330.8" font-family="Times,serif" font-size="14.00">_layout</text>
</g>
<!-- App::VideosController -->
<g id="node18" class="node"><title>App::VideosController</title>
<path fill="none" stroke="black" d="M106.869,360C106.869,360 227.131,360 227.131,360 233.131,360 239.131,354 239.131,348 239.131,348 239.131,170 239.131,170 239.131,164 233.131,158 227.131,158 227.131,158 106.869,158 106.869,158 100.869,158 94.8687,164 94.8687,170 94.8687,170 94.8687,348 94.8687,348 94.8687,354 100.869,360 106.869,360"/>
<text text-anchor="middle" x="167" y="173.2" font-family="Times,serif" font-size="14.00">App::VideosController</text>
<polyline fill="none" stroke="black" points="94.8687,180 239.131,180 "/>
<text text-anchor="start" x="102.869" y="195.2" font-family="Times,serif" font-size="14.00">create</text>
<text text-anchor="start" x="102.869" y="209.2" font-family="Times,serif" font-size="14.00">destroy</text>
<text text-anchor="start" x="102.869" y="223.2" font-family="Times,serif" font-size="14.00">edit</text>
<text text-anchor="start" x="102.869" y="237.2" font-family="Times,serif" font-size="14.00">index</text>
<text text-anchor="start" x="102.869" y="251.2" font-family="Times,serif" font-size="14.00">new</text>
<text text-anchor="start" x="102.869" y="265.2" font-family="Times,serif" font-size="14.00">show</text>
<text text-anchor="start" x="102.869" y="279.2" font-family="Times,serif" font-size="14.00">update</text>
<polyline fill="none" stroke="black" points="94.8687,286 239.131,286 "/>
<polyline fill="none" stroke="black" points="94.8687,310 239.131,310 "/>
<text text-anchor="start" x="102.869" y="325.2" font-family="Times,serif" font-size="14.00">_layout</text>
<text text-anchor="start" x="102.869" y="339.2" font-family="Times,serif" font-size="14.00">set_video</text>
<text text-anchor="start" x="102.869" y="353.2" font-family="Times,serif" font-size="14.00">video_params</text>
</g>
<!-- ApplicationController -->
<g id="node19" class="node"><title>ApplicationController</title>
<path fill="none" stroke="black" d="M-44.9658,-381C-44.9658,-381 128.966,-381 128.966,-381 134.966,-381 140.966,-387 140.966,-393 140.966,-393 140.966,-513 140.966,-513 140.966,-519 134.966,-525 128.966,-525 128.966,-525 -44.9658,-525 -44.9658,-525 -50.9658,-525 -56.9658,-519 -56.9658,-513 -56.9658,-513 -56.9658,-393 -56.9658,-393 -56.9658,-387 -50.9658,-381 -44.9658,-381"/>
<text text-anchor="middle" x="42" y="-509.8" font-family="Times,serif" font-size="14.00">ApplicationController</text>
<polyline fill="none" stroke="black" points="-56.9658,-503 140.966,-503 "/>
<text text-anchor="start" x="-48.9658" y="-487.8" font-family="Times,serif" font-size="14.00">after_sign_in_path_for</text>
<text text-anchor="start" x="-48.9658" y="-473.8" font-family="Times,serif" font-size="14.00">current_manager</text>
<text text-anchor="start" x="-48.9658" y="-459.8" font-family="Times,serif" font-size="14.00">current_partner</text>
<polyline fill="none" stroke="black" points="-56.9658,-453 140.966,-453 "/>
<text text-anchor="start" x="-48.9658" y="-437.8" font-family="Times,serif" font-size="14.00">authenticate_manager!</text>
<text text-anchor="start" x="-48.9658" y="-423.8" font-family="Times,serif" font-size="14.00">authenticate_partner!</text>
<text text-anchor="start" x="-48.9658" y="-409.8" font-family="Times,serif" font-size="14.00">configure_permitted_parameters</text>
<polyline fill="none" stroke="black" points="-56.9658,-403 140.966,-403 "/>
<text text-anchor="start" x="-48.9658" y="-387.8" font-family="Times,serif" font-size="14.00">_layout</text>
</g>
<!-- Cabinet::BaseController -->
<g id="node20" class="node"><title>Cabinet::BaseController</title>
<path fill="none" stroke="black" d="M-463.042,-191C-463.042,-191 -334.958,-191 -334.958,-191 -328.958,-191 -322.958,-197 -322.958,-203 -322.958,-203 -322.958,-271 -322.958,-271 -322.958,-277 -328.958,-283 -334.958,-283 -334.958,-283 -463.042,-283 -463.042,-283 -469.042,-283 -475.042,-277 -475.042,-271 -475.042,-271 -475.042,-203 -475.042,-203 -475.042,-197 -469.042,-191 -463.042,-191"/>
<text text-anchor="middle" x="-399" y="-267.8" font-family="Times,serif" font-size="14.00">Cabinet::BaseController</text>
<polyline fill="none" stroke="black" points="-475.042,-261 -322.958,-261 "/>
<polyline fill="none" stroke="black" points="-475.042,-237 -322.958,-237 "/>
<polyline fill="none" stroke="black" points="-475.042,-213 -322.958,-213 "/>
<text text-anchor="start" x="-467.042" y="-197.8" font-family="Times,serif" font-size="14.00">_layout</text>
</g>
<!-- Cabinet::GalleriesController -->
<g id="node21" class="node"><title>Cabinet::GalleriesController</title>
<path fill="none" stroke="black" d="M126.3,113C126.3,113 277.7,113 277.7,113 283.7,113 289.7,107 289.7,101 289.7,101 289.7,-77 289.7,-77 289.7,-83 283.7,-89 277.7,-89 277.7,-89 126.3,-89 126.3,-89 120.3,-89 114.3,-83 114.3,-77 114.3,-77 114.3,101 114.3,101 114.3,107 120.3,113 126.3,113"/>
<text text-anchor="middle" x="202" y="-73.8" font-family="Times,serif" font-size="14.00">Cabinet::GalleriesController</text>
<polyline fill="none" stroke="black" points="114.3,-67 289.7,-67 "/>
<text text-anchor="start" x="122.3" y="-51.8" font-family="Times,serif" font-size="14.00">create</text>
<text text-anchor="start" x="122.3" y="-37.8" font-family="Times,serif" font-size="14.00">destroy</text>
<text text-anchor="start" x="122.3" y="-23.8" font-family="Times,serif" font-size="14.00">edit</text>
<text text-anchor="start" x="122.3" y="-9.8" font-family="Times,serif" font-size="14.00">index</text>
<text text-anchor="start" x="122.3" y="4.2" font-family="Times,serif" font-size="14.00">new</text>
<text text-anchor="start" x="122.3" y="18.2" font-family="Times,serif" font-size="14.00">show</text>
<text text-anchor="start" x="122.3" y="32.2" font-family="Times,serif" font-size="14.00">update</text>
<polyline fill="none" stroke="black" points="114.3,39 289.7,39 "/>
<polyline fill="none" stroke="black" points="114.3,63 289.7,63 "/>
<text text-anchor="start" x="122.3" y="78.2" font-family="Times,serif" font-size="14.00">_layout</text>
<text text-anchor="start" x="122.3" y="92.2" font-family="Times,serif" font-size="14.00">gallery_params</text>
<text text-anchor="start" x="122.3" y="106.2" font-family="Times,serif" font-size="14.00">set_gallery</text>
</g>
<!-- Cabinet::PartnersController -->
<g id="node22" class="node"><title>Cabinet::PartnersController</title>
<path fill="none" stroke="black" d="M429.627,-419C429.627,-419 576.373,-419 576.373,-419 582.373,-419 588.373,-425 588.373,-431 588.373,-431 588.373,-567 588.373,-567 588.373,-573 582.373,-579 576.373,-579 576.373,-579 429.627,-579 429.627,-579 423.627,-579 417.627,-573 417.627,-567 417.627,-567 417.627,-431 417.627,-431 417.627,-425 423.627,-419 429.627,-419"/>
<text text-anchor="middle" x="503" y="-563.8" font-family="Times,serif" font-size="14.00">Cabinet::PartnersController</text>
<polyline fill="none" stroke="black" points="417.627,-557 588.373,-557 "/>
<text text-anchor="start" x="425.627" y="-541.8" font-family="Times,serif" font-size="14.00">days</text>
<text text-anchor="start" x="425.627" y="-527.8" font-family="Times,serif" font-size="14.00">edit</text>
<text text-anchor="start" x="425.627" y="-513.8" font-family="Times,serif" font-size="14.00">show</text>
<text text-anchor="start" x="425.627" y="-499.8" font-family="Times,serif" font-size="14.00">update</text>
<polyline fill="none" stroke="black" points="417.627,-493 588.373,-493 "/>
<polyline fill="none" stroke="black" points="417.627,-469 588.373,-469 "/>
<text text-anchor="start" x="425.627" y="-453.8" font-family="Times,serif" font-size="14.00">_layout</text>
<text text-anchor="start" x="425.627" y="-439.8" font-family="Times,serif" font-size="14.00">partner_params</text>
<text text-anchor="start" x="425.627" y="-425.8" font-family="Times,serif" font-size="14.00">set_partner</text>
</g>
<!-- Cabinet::PhotosController -->
<g id="node23" class="node"><title>Cabinet::PhotosController</title>
<path fill="none" stroke="black" d="M353.503,-172C353.503,-172 492.497,-172 492.497,-172 498.497,-172 504.497,-178 504.497,-184 504.497,-184 504.497,-362 504.497,-362 504.497,-368 498.497,-374 492.497,-374 492.497,-374 353.503,-374 353.503,-374 347.503,-374 341.503,-368 341.503,-362 341.503,-362 341.503,-184 341.503,-184 341.503,-178 347.503,-172 353.503,-172"/>
<text text-anchor="middle" x="423" y="-358.8" font-family="Times,serif" font-size="14.00">Cabinet::PhotosController</text>
<polyline fill="none" stroke="black" points="341.503,-352 504.497,-352 "/>
<text text-anchor="start" x="349.503" y="-336.8" font-family="Times,serif" font-size="14.00">create</text>
<text text-anchor="start" x="349.503" y="-322.8" font-family="Times,serif" font-size="14.00">destroy</text>
<text text-anchor="start" x="349.503" y="-308.8" font-family="Times,serif" font-size="14.00">edit</text>
<text text-anchor="start" x="349.503" y="-294.8" font-family="Times,serif" font-size="14.00">index</text>
<text text-anchor="start" x="349.503" y="-280.8" font-family="Times,serif" font-size="14.00">new</text>
<text text-anchor="start" x="349.503" y="-266.8" font-family="Times,serif" font-size="14.00">show</text>
<text text-anchor="start" x="349.503" y="-252.8" font-family="Times,serif" font-size="14.00">update</text>
<polyline fill="none" stroke="black" points="341.503,-246 504.497,-246 "/>
<polyline fill="none" stroke="black" points="341.503,-222 504.497,-222 "/>
<text text-anchor="start" x="349.503" y="-206.8" font-family="Times,serif" font-size="14.00">_layout</text>
<text text-anchor="start" x="349.503" y="-192.8" font-family="Times,serif" font-size="14.00">photo_params</text>
<text text-anchor="start" x="349.503" y="-178.8" font-family="Times,serif" font-size="14.00">set_photo</text>
</g>
<!-- Cabinet::VideosController -->
<g id="node24" class="node"><title>Cabinet::VideosController</title>
<path fill="none" stroke="black" d="M506.151,493C506.151,493 645.849,493 645.849,493 651.849,493 657.849,487 657.849,481 657.849,481 657.849,387 657.849,387 657.849,381 651.849,375 645.849,375 645.849,375 506.151,375 506.151,375 500.151,375 494.151,381 494.151,387 494.151,387 494.151,481 494.151,481 494.151,487 500.151,493 506.151,493"/>
<text text-anchor="middle" x="576" y="390.2" font-family="Times,serif" font-size="14.00">Cabinet::VideosController</text>
<polyline fill="none" stroke="black" points="494.151,397 657.849,397 "/>
<text text-anchor="start" x="502.151" y="412.2" font-family="Times,serif" font-size="14.00">create</text>
<text text-anchor="start" x="502.151" y="426.2" font-family="Times,serif" font-size="14.00">destroy</text>
<polyline fill="none" stroke="black" points="494.151,433 657.849,433 "/>
<polyline fill="none" stroke="black" points="494.151,457 657.849,457 "/>
<text text-anchor="start" x="502.151" y="472.2" font-family="Times,serif" font-size="14.00">_layout</text>
<text text-anchor="start" x="502.151" y="486.2" font-family="Times,serif" font-size="14.00">video_params</text>
</g>
<!-- ConfirmationsController -->
<g id="node25" class="node"><title>ConfirmationsController</title>
<path fill="none" stroke="black" d="M-387.307,398C-387.307,398 -236.693,398 -236.693,398 -230.693,398 -224.693,392 -224.693,386 -224.693,386 -224.693,304 -224.693,304 -224.693,298 -230.693,292 -236.693,292 -236.693,292 -387.307,292 -387.307,292 -393.307,292 -399.307,298 -399.307,304 -399.307,304 -399.307,386 -399.307,386 -399.307,392 -393.307,398 -387.307,398"/>
<text text-anchor="middle" x="-312" y="307.2" font-family="Times,serif" font-size="14.00">ConfirmationsController</text>
<polyline fill="none" stroke="black" points="-399.307,314 -224.693,314 "/>
<polyline fill="none" stroke="black" points="-399.307,338 -224.693,338 "/>
<polyline fill="none" stroke="black" points="-399.307,362 -224.693,362 "/>
<text text-anchor="start" x="-391.307" y="377.2" font-family="Times,serif" font-size="14.00">_layout</text>
<text text-anchor="start" x="-391.307" y="391.2" font-family="Times,serif" font-size="14.00">after_confirmation_path_for</text>
</g>
</g>
</svg>
