<?xml version="1.0" encoding="UTF-8" standalone="no"?>
<!DOCTYPE svg PUBLIC "-//W3C//DTD SVG 1.1//EN"
 "http://www.w3.org/Graphics/SVG/1.1/DTD/svg11.dtd">
<!-- Generated by graphviz version 2.38.0 (20140413.2041)
 -->
<!-- Title: models_diagram Pages: 1 -->
<svg width="1244pt" height="1179pt"
 viewBox="0.00 0.00 1243.97 1179.00" xmlns="http://www.w3.org/2000/svg" xmlns:xlink="http://www.w3.org/1999/xlink">
<g id="graph0" class="graph" transform="scale(1 1) rotate(0) translate(4 1175)">
<title>models_diagram</title>
<polygon fill="white" stroke="none" points="-4,4 -4,-1175 1239.97,-1175 1239.97,4 -4,4"/>
<!-- _diagram_info -->
<g id="node1" class="node"><title>_diagram_info</title>
<text text-anchor="start" x="8" y="-1100.6" font-family="Times,serif" font-size="13.00">Models diagram</text>
<text text-anchor="start" x="8" y="-1087.6" font-family="Times,serif" font-size="13.00">Date: Dec 05 2014 &#45; 12:13</text>
<text text-anchor="start" x="8" y="-1074.6" font-family="Times,serif" font-size="13.00">Migration version: 20141204222124</text>
<text text-anchor="start" x="8" y="-1061.6" font-family="Times,serif" font-size="13.00">Generated by RailRoady 1.2.0</text>
<text text-anchor="start" x="8" y="-1048.6" font-family="Times,serif" font-size="13.00">http://railroady.prestonlee.com</text>
</g>
<!-- Category -->
<g id="node2" class="node"><title>Category</title>
<path fill="none" stroke="black" d="M237.238,-986.5C237.238,-986.5 378.138,-986.5 378.138,-986.5 384.138,-986.5 390.138,-992.5 390.138,-998.5 390.138,-998.5 390.138,-1158.5 390.138,-1158.5 390.138,-1164.5 384.138,-1170.5 378.138,-1170.5 378.138,-1170.5 237.238,-1170.5 237.238,-1170.5 231.238,-1170.5 225.238,-1164.5 225.238,-1158.5 225.238,-1158.5 225.238,-998.5 225.238,-998.5 225.238,-992.5 231.238,-986.5 237.238,-986.5"/>
<text text-anchor="middle" x="307.688" y="-1155.3" font-family="Times,serif" font-size="14.00">Category</text>
<polyline fill="none" stroke="black" points="225.238,-1148.5 390.138,-1148.5 "/>
<text text-anchor="start" x="233.238" y="-1133.3" font-family="Times,serif" font-size="14.00">id :integer</text>
<text text-anchor="start" x="233.238" y="-1119.3" font-family="Times,serif" font-size="14.00">name :string</text>
<text text-anchor="start" x="233.238" y="-1105.3" font-family="Times,serif" font-size="14.00">name_sing :string</text>
<text text-anchor="start" x="233.238" y="-1091.3" font-family="Times,serif" font-size="14.00">slug :string</text>
<text text-anchor="start" x="233.238" y="-1077.3" font-family="Times,serif" font-size="14.00">logo_file_name :string</text>
<text text-anchor="start" x="233.238" y="-1063.3" font-family="Times,serif" font-size="14.00">logo_content_type :string</text>
<text text-anchor="start" x="233.238" y="-1049.3" font-family="Times,serif" font-size="14.00">logo_file_size :integer</text>
<text text-anchor="start" x="233.238" y="-1035.3" font-family="Times,serif" font-size="14.00">logo_updated_at :datetime</text>
<text text-anchor="start" x="233.238" y="-1021.3" font-family="Times,serif" font-size="14.00">logo_remote_url :string</text>
<text text-anchor="start" x="233.238" y="-1007.3" font-family="Times,serif" font-size="14.00">created_at :datetime</text>
<text text-anchor="start" x="233.238" y="-993.3" font-family="Times,serif" font-size="14.00">updated_at :datetime</text>
</g>
<!-- Involving -->
<g id="node6" class="node"><title>Involving</title>
<path fill="none" stroke="black" d="M207.517,-369.5C207.517,-369.5 311.859,-369.5 311.859,-369.5 317.859,-369.5 323.859,-375.5 323.859,-381.5 323.859,-381.5 323.859,-443.5 323.859,-443.5 323.859,-449.5 317.859,-455.5 311.859,-455.5 311.859,-455.5 207.517,-455.5 207.517,-455.5 201.517,-455.5 195.517,-449.5 195.517,-443.5 195.517,-443.5 195.517,-381.5 195.517,-381.5 195.517,-375.5 201.517,-369.5 207.517,-369.5"/>
<text text-anchor="middle" x="259.688" y="-440.3" font-family="Times,serif" font-size="14.00">Involving</text>
<polyline fill="none" stroke="black" points="195.517,-433.5 323.859,-433.5 "/>
<text text-anchor="start" x="203.517" y="-418.3" font-family="Times,serif" font-size="14.00">id :integer</text>
<text text-anchor="start" x="203.517" y="-404.3" font-family="Times,serif" font-size="14.00">price :integer</text>
<text text-anchor="start" x="203.517" y="-390.3" font-family="Times,serif" font-size="14.00">partner_id :integer</text>
<text text-anchor="start" x="203.517" y="-376.3" font-family="Times,serif" font-size="14.00">category_id :integer</text>
</g>
<!-- Category&#45;&gt;Involving -->
<g id="edge1" class="edge"><title>Category&#45;&gt;Involving</title>
<path fill="none" stroke="#360987" d="M300.494,-977.98C290.155,-834.968 271.464,-576.41 263.475,-465.892"/>
<ellipse fill="none" stroke="#360987" cx="300.801" cy="-982.229" rx="4" ry="4"/>
<polygon fill="#360987" stroke="#360987" points="263.457,-465.642 267.224,-455.343 263.097,-460.655 262.736,-455.668 262.736,-455.668 262.736,-455.668 263.097,-460.655 258.248,-455.992 263.457,-465.642 263.457,-465.642"/>
</g>
<!-- Partner -->
<g id="node9" class="node"><title>Partner</title>
<path fill="none" stroke="black" d="M561.182,-667.5C561.182,-667.5 670.193,-667.5 670.193,-667.5 676.193,-667.5 682.193,-673.5 682.193,-679.5 682.193,-679.5 682.193,-923.5 682.193,-923.5 682.193,-929.5 676.193,-935.5 670.193,-935.5 670.193,-935.5 561.182,-935.5 561.182,-935.5 555.182,-935.5 549.182,-929.5 549.182,-923.5 549.182,-923.5 549.182,-679.5 549.182,-679.5 549.182,-673.5 555.182,-667.5 561.182,-667.5"/>
<text text-anchor="middle" x="615.688" y="-920.3" font-family="Times,serif" font-size="14.00">Partner</text>
<polyline fill="none" stroke="black" points="549.182,-913.5 682.193,-913.5 "/>
<text text-anchor="start" x="557.182" y="-898.3" font-family="Times,serif" font-size="14.00">id :integer</text>
<text text-anchor="start" x="557.182" y="-884.3" font-family="Times,serif" font-size="14.00">name :string</text>
<text text-anchor="start" x="557.182" y="-870.3" font-family="Times,serif" font-size="14.00">description :text</text>
<text text-anchor="start" x="557.182" y="-856.3" font-family="Times,serif" font-size="14.00">info :text</text>
<text text-anchor="start" x="557.182" y="-842.3" font-family="Times,serif" font-size="14.00">price :integer</text>
<text text-anchor="start" x="557.182" y="-828.3" font-family="Times,serif" font-size="14.00">location_id :integer</text>
<text text-anchor="start" x="557.182" y="-814.3" font-family="Times,serif" font-size="14.00">site :string</text>
<text text-anchor="start" x="557.182" y="-800.3" font-family="Times,serif" font-size="14.00">phone :string</text>
<text text-anchor="start" x="557.182" y="-786.3" font-family="Times,serif" font-size="14.00">socials :hstore</text>
<text text-anchor="start" x="557.182" y="-772.3" font-family="Times,serif" font-size="14.00">callendar :boolean</text>
<text text-anchor="start" x="557.182" y="-758.3" font-family="Times,serif" font-size="14.00">active :boolean</text>
<text text-anchor="start" x="557.182" y="-744.3" font-family="Times,serif" font-size="14.00">premium :boolean</text>
<text text-anchor="start" x="557.182" y="-730.3" font-family="Times,serif" font-size="14.00">premium_to :date</text>
<text text-anchor="start" x="557.182" y="-716.3" font-family="Times,serif" font-size="14.00">rating :integer</text>
<text text-anchor="start" x="557.182" y="-702.3" font-family="Times,serif" font-size="14.00">slug :string</text>
<text text-anchor="start" x="557.182" y="-688.3" font-family="Times,serif" font-size="14.00">created_at :datetime</text>
<text text-anchor="start" x="557.182" y="-674.3" font-family="Times,serif" font-size="14.00">updated_at :datetime</text>
</g>
<!-- Category&#45;&gt;Partner -->
<g id="edge2" class="edge"><title>Category&#45;&gt;Partner</title>
<path fill="none" stroke="#711ccc" d="M397.895,-996.958C443.507,-956.233 498.189,-907.41 541.35,-868.873"/>
<polygon fill="#711ccc" stroke="#711ccc" points="397.685,-997.145 387.229,-1000.45 393.956,-1000.47 390.226,-1003.81 390.226,-1003.81 390.226,-1003.81 393.956,-1000.47 393.223,-1007.16 397.685,-997.145 397.685,-997.145"/>
<polygon fill="#711ccc" stroke="#711ccc" points="541.536,-868.707 551.993,-865.403 545.266,-865.377 548.996,-862.047 548.996,-862.047 548.996,-862.047 545.266,-865.377 545.999,-858.69 541.536,-868.707 541.536,-868.707"/>
</g>
<!-- Cooperation -->
<g id="node3" class="node"><title>Cooperation</title>
<path fill="none" stroke="black" d="M728.958,-348.5C728.958,-348.5 850.417,-348.5 850.417,-348.5 856.417,-348.5 862.417,-354.5 862.417,-360.5 862.417,-360.5 862.417,-464.5 862.417,-464.5 862.417,-470.5 856.417,-476.5 850.417,-476.5 850.417,-476.5 728.958,-476.5 728.958,-476.5 722.958,-476.5 716.958,-470.5 716.958,-464.5 716.958,-464.5 716.958,-360.5 716.958,-360.5 716.958,-354.5 722.958,-348.5 728.958,-348.5"/>
<text text-anchor="middle" x="789.688" y="-461.3" font-family="Times,serif" font-size="14.00">Cooperation</text>
<polyline fill="none" stroke="black" points="716.958,-454.5 862.417,-454.5 "/>
<text text-anchor="start" x="724.958" y="-439.3" font-family="Times,serif" font-size="14.00">id :integer</text>
<text text-anchor="start" x="724.958" y="-425.3" font-family="Times,serif" font-size="14.00">partner_id :integer</text>
<text text-anchor="start" x="724.958" y="-411.3" font-family="Times,serif" font-size="14.00">co_id :integer</text>
<text text-anchor="start" x="724.958" y="-397.3" font-family="Times,serif" font-size="14.00">confirmed :boolean</text>
<text text-anchor="start" x="724.958" y="-383.3" font-family="Times,serif" font-size="14.00">confirmed_at :datetime</text>
<text text-anchor="start" x="724.958" y="-369.3" font-family="Times,serif" font-size="14.00">created_at :datetime</text>
<text text-anchor="start" x="724.958" y="-355.3" font-family="Times,serif" font-size="14.00">updated_at :datetime</text>
</g>
<!-- Day -->
<g id="node4" class="node"><title>Day</title>
<path fill="none" stroke="black" d="M443.182,-1035.5C443.182,-1035.5 552.193,-1035.5 552.193,-1035.5 558.193,-1035.5 564.193,-1041.5 564.193,-1047.5 564.193,-1047.5 564.193,-1109.5 564.193,-1109.5 564.193,-1115.5 558.193,-1121.5 552.193,-1121.5 552.193,-1121.5 443.182,-1121.5 443.182,-1121.5 437.182,-1121.5 431.182,-1115.5 431.182,-1109.5 431.182,-1109.5 431.182,-1047.5 431.182,-1047.5 431.182,-1041.5 437.182,-1035.5 443.182,-1035.5"/>
<text text-anchor="middle" x="497.688" y="-1106.3" font-family="Times,serif" font-size="14.00">Day</text>
<polyline fill="none" stroke="black" points="431.182,-1099.5 564.193,-1099.5 "/>
<text text-anchor="start" x="439.182" y="-1084.3" font-family="Times,serif" font-size="14.00">id :integer</text>
<text text-anchor="start" x="439.182" y="-1070.3" font-family="Times,serif" font-size="14.00">day_of_life :date</text>
<text text-anchor="start" x="439.182" y="-1056.3" font-family="Times,serif" font-size="14.00">created_at :datetime</text>
<text text-anchor="start" x="439.182" y="-1042.3" font-family="Times,serif" font-size="14.00">updated_at :datetime</text>
</g>
<!-- Day&#45;&gt;Partner -->
<g id="edge3" class="edge"><title>Day&#45;&gt;Partner</title>
<path fill="none" stroke="#3221b7" d="M519.818,-1025.92C529.77,-1002.73 542.058,-974.094 554.477,-945.152"/>
<polygon fill="#3221b7" stroke="#3221b7" points="519.681,-1026.24 511.602,-1033.66 517.709,-1030.84 515.738,-1035.43 515.738,-1035.43 515.738,-1035.43 517.709,-1030.84 519.873,-1037.21 519.681,-1026.24 519.681,-1026.24"/>
<polygon fill="#3221b7" stroke="#3221b7" points="554.568,-944.941 562.646,-937.526 556.539,-940.346 558.511,-935.751 558.511,-935.751 558.511,-935.751 556.539,-940.346 554.375,-933.977 554.568,-944.941 554.568,-944.941"/>
</g>
<!-- Gallery -->
<g id="node5" class="node"><title>Gallery</title>
<path fill="none" stroke="black" d="M354.182,-341.5C354.182,-341.5 463.193,-341.5 463.193,-341.5 469.193,-341.5 475.193,-347.5 475.193,-353.5 475.193,-353.5 475.193,-471.5 475.193,-471.5 475.193,-477.5 469.193,-483.5 463.193,-483.5 463.193,-483.5 354.182,-483.5 354.182,-483.5 348.182,-483.5 342.182,-477.5 342.182,-471.5 342.182,-471.5 342.182,-353.5 342.182,-353.5 342.182,-347.5 348.182,-341.5 354.182,-341.5"/>
<text text-anchor="middle" x="408.688" y="-468.3" font-family="Times,serif" font-size="14.00">Gallery</text>
<polyline fill="none" stroke="black" points="342.182,-461.5 475.193,-461.5 "/>
<text text-anchor="start" x="350.182" y="-446.3" font-family="Times,serif" font-size="14.00">id :integer</text>
<text text-anchor="start" x="350.182" y="-432.3" font-family="Times,serif" font-size="14.00">name :string</text>
<text text-anchor="start" x="350.182" y="-418.3" font-family="Times,serif" font-size="14.00">description :text</text>
<text text-anchor="start" x="350.182" y="-404.3" font-family="Times,serif" font-size="14.00">rating :integer</text>
<text text-anchor="start" x="350.182" y="-390.3" font-family="Times,serif" font-size="14.00">partner_id :integer</text>
<text text-anchor="start" x="350.182" y="-376.3" font-family="Times,serif" font-size="14.00">slug :string</text>
<text text-anchor="start" x="350.182" y="-362.3" font-family="Times,serif" font-size="14.00">created_at :datetime</text>
<text text-anchor="start" x="350.182" y="-348.3" font-family="Times,serif" font-size="14.00">updated_at :datetime</text>
</g>
<!-- Photo -->
<g id="node10" class="node"><title>Photo</title>
<path fill="none" stroke="black" d="M402.075,-0.5C402.075,-0.5 545.3,-0.5 545.3,-0.5 551.3,-0.5 557.3,-6.5 557.3,-12.5 557.3,-12.5 557.3,-158.5 557.3,-158.5 557.3,-164.5 551.3,-170.5 545.3,-170.5 545.3,-170.5 402.075,-170.5 402.075,-170.5 396.075,-170.5 390.075,-164.5 390.075,-158.5 390.075,-158.5 390.075,-12.5 390.075,-12.5 390.075,-6.5 396.075,-0.5 402.075,-0.5"/>
<text text-anchor="middle" x="473.688" y="-155.3" font-family="Times,serif" font-size="14.00">Photo</text>
<polyline fill="none" stroke="black" points="390.075,-148.5 557.3,-148.5 "/>
<text text-anchor="start" x="398.075" y="-133.3" font-family="Times,serif" font-size="14.00">id :integer</text>
<text text-anchor="start" x="398.075" y="-119.3" font-family="Times,serif" font-size="14.00">asset_file_name :string</text>
<text text-anchor="start" x="398.075" y="-105.3" font-family="Times,serif" font-size="14.00">asset_content_type :string</text>
<text text-anchor="start" x="398.075" y="-91.3" font-family="Times,serif" font-size="14.00">asset_file_size :integer</text>
<text text-anchor="start" x="398.075" y="-77.3" font-family="Times,serif" font-size="14.00">asset_updated_at :datetime</text>
<text text-anchor="start" x="398.075" y="-63.3" font-family="Times,serif" font-size="14.00">asset_remote_url :string</text>
<text text-anchor="start" x="398.075" y="-49.3" font-family="Times,serif" font-size="14.00">rating :integer</text>
<text text-anchor="start" x="398.075" y="-35.3" font-family="Times,serif" font-size="14.00">gallery_id :integer</text>
<text text-anchor="start" x="398.075" y="-21.3" font-family="Times,serif" font-size="14.00">created_at :datetime</text>
<text text-anchor="start" x="398.075" y="-7.3" font-family="Times,serif" font-size="14.00">updated_at :datetime</text>
</g>
<!-- Gallery&#45;&gt;Photo -->
<g id="edge4" class="edge"><title>Gallery&#45;&gt;Photo</title>
<path fill="none" stroke="#8e3d06" d="M424.325,-333.312C433.518,-287.349 445.2,-228.94 454.891,-180.482"/>
<ellipse fill="none" stroke="#8e3d06" cx="423.496" cy="-337.458" rx="4.00001" ry="4.00001"/>
<polygon fill="#8e3d06" stroke="#8e3d06" points="454.903,-180.422 461.277,-171.499 455.884,-175.519 456.865,-170.616 456.865,-170.616 456.865,-170.616 455.884,-175.519 452.452,-169.734 454.903,-180.422 454.903,-180.422"/>
</g>
<!-- Location -->
<g id="node7" class="node"><title>Location</title>
<path fill="none" stroke="black" d="M594.182,-1028.5C594.182,-1028.5 703.193,-1028.5 703.193,-1028.5 709.193,-1028.5 715.193,-1034.5 715.193,-1040.5 715.193,-1040.5 715.193,-1116.5 715.193,-1116.5 715.193,-1122.5 709.193,-1128.5 703.193,-1128.5 703.193,-1128.5 594.182,-1128.5 594.182,-1128.5 588.182,-1128.5 582.182,-1122.5 582.182,-1116.5 582.182,-1116.5 582.182,-1040.5 582.182,-1040.5 582.182,-1034.5 588.182,-1028.5 594.182,-1028.5"/>
<text text-anchor="middle" x="648.688" y="-1113.3" font-family="Times,serif" font-size="14.00">Location</text>
<polyline fill="none" stroke="black" points="582.182,-1106.5 715.193,-1106.5 "/>
<text text-anchor="start" x="590.182" y="-1091.3" font-family="Times,serif" font-size="14.00">id :integer</text>
<text text-anchor="start" x="590.182" y="-1077.3" font-family="Times,serif" font-size="14.00">name :string</text>
<text text-anchor="start" x="590.182" y="-1063.3" font-family="Times,serif" font-size="14.00">slug :string</text>
<text text-anchor="start" x="590.182" y="-1049.3" font-family="Times,serif" font-size="14.00">created_at :datetime</text>
<text text-anchor="start" x="590.182" y="-1035.3" font-family="Times,serif" font-size="14.00">updated_at :datetime</text>
</g>
<!-- Location&#45;&gt;Partner -->
<g id="edge5" class="edge"><title>Location&#45;&gt;Partner</title>
<path fill="none" stroke="#745844" d="M641.807,-1020.16C639.175,-998.231 636.042,-972.122 632.875,-945.731"/>
<ellipse fill="none" stroke="#745844" cx="642.311" cy="-1024.36" rx="4.00001" ry="4.00001"/>
<polygon fill="#745844" stroke="#745844" points="632.853,-945.539 636.129,-935.074 632.257,-940.575 631.661,-935.61 631.661,-935.61 631.661,-935.61 632.257,-940.575 627.193,-936.147 632.853,-945.539 632.853,-945.539"/>
<text text-anchor="middle" x="656.853" y="-956.8" font-family="Times,serif" font-size="14.00">lives_in</text>
</g>
<!-- Location&#45;&gt;Partner -->
<g id="edge6" class="edge"><title>Location&#45;&gt;Partner</title>
<path fill="none" stroke="#b29566" d="M637.455,-1018.38C634.628,-1002.1 631.8,-984.402 629.688,-968 628.763,-960.823 627.886,-953.464 627.054,-946.025"/>
<polygon fill="#b29566" stroke="#b29566" points="637.47,-1018.46 634.778,-1029.09 638.34,-1023.38 639.209,-1028.31 639.209,-1028.31 639.209,-1028.31 638.34,-1023.38 643.641,-1027.53 637.47,-1018.46 637.47,-1018.46"/>
<polygon fill="#b29566" stroke="#b29566" points="627.029,-945.785 630.423,-935.358 626.489,-940.814 625.95,-935.844 625.95,-935.844 625.95,-935.844 626.489,-940.814 621.476,-936.329 627.029,-945.785 627.029,-945.785"/>
</g>
<!-- Manager -->
<g id="node8" class="node"><title>Manager</title>
<path fill="none" stroke="black" d="M1079.18,-758.5C1079.18,-758.5 1188.19,-758.5 1188.19,-758.5 1194.19,-758.5 1200.19,-764.5 1200.19,-770.5 1200.19,-770.5 1200.19,-832.5 1200.19,-832.5 1200.19,-838.5 1194.19,-844.5 1188.19,-844.5 1188.19,-844.5 1079.18,-844.5 1079.18,-844.5 1073.18,-844.5 1067.18,-838.5 1067.18,-832.5 1067.18,-832.5 1067.18,-770.5 1067.18,-770.5 1067.18,-764.5 1073.18,-758.5 1079.18,-758.5"/>
<text text-anchor="middle" x="1133.69" y="-829.3" font-family="Times,serif" font-size="14.00">Manager</text>
<polyline fill="none" stroke="black" points="1067.18,-822.5 1200.19,-822.5 "/>
<text text-anchor="start" x="1075.18" y="-807.3" font-family="Times,serif" font-size="14.00">id :integer</text>
<text text-anchor="start" x="1075.18" y="-793.3" font-family="Times,serif" font-size="14.00">name :string</text>
<text text-anchor="start" x="1075.18" y="-779.3" font-family="Times,serif" font-size="14.00">created_at :datetime</text>
<text text-anchor="start" x="1075.18" y="-765.3" font-family="Times,serif" font-size="14.00">updated_at :datetime</text>
</g>
<!-- User -->
<g id="node12" class="node"><title>User</title>
<path fill="none" stroke="black" d="M1043.41,-208.5C1043.41,-208.5 1223.97,-208.5 1223.97,-208.5 1229.97,-208.5 1235.97,-214.5 1235.97,-220.5 1235.97,-220.5 1235.97,-604.5 1235.97,-604.5 1235.97,-610.5 1229.97,-616.5 1223.97,-616.5 1223.97,-616.5 1043.41,-616.5 1043.41,-616.5 1037.41,-616.5 1031.41,-610.5 1031.41,-604.5 1031.41,-604.5 1031.41,-220.5 1031.41,-220.5 1031.41,-214.5 1037.41,-208.5 1043.41,-208.5"/>
<text text-anchor="middle" x="1133.69" y="-601.3" font-family="Times,serif" font-size="14.00">User</text>
<polyline fill="none" stroke="black" points="1031.41,-594.5 1235.97,-594.5 "/>
<text text-anchor="start" x="1039.41" y="-579.3" font-family="Times,serif" font-size="14.00">id :integer</text>
<text text-anchor="start" x="1039.41" y="-565.3" font-family="Times,serif" font-size="14.00">rolable_id :integer</text>
<text text-anchor="start" x="1039.41" y="-551.3" font-family="Times,serif" font-size="14.00">rolable_type :string</text>
<text text-anchor="start" x="1039.41" y="-537.3" font-family="Times,serif" font-size="14.00">avatar_file_name :string</text>
<text text-anchor="start" x="1039.41" y="-523.3" font-family="Times,serif" font-size="14.00">avatar_content_type :string</text>
<text text-anchor="start" x="1039.41" y="-509.3" font-family="Times,serif" font-size="14.00">avatar_file_size :integer</text>
<text text-anchor="start" x="1039.41" y="-495.3" font-family="Times,serif" font-size="14.00">avatar_updated_at :datetime</text>
<text text-anchor="start" x="1039.41" y="-481.3" font-family="Times,serif" font-size="14.00">avatar_remote_url :string</text>
<text text-anchor="start" x="1039.41" y="-467.3" font-family="Times,serif" font-size="14.00">email :string</text>
<text text-anchor="start" x="1039.41" y="-453.3" font-family="Times,serif" font-size="14.00">encrypted_password :string</text>
<text text-anchor="start" x="1039.41" y="-439.3" font-family="Times,serif" font-size="14.00">reset_password_token :string</text>
<text text-anchor="start" x="1039.41" y="-425.3" font-family="Times,serif" font-size="14.00">reset_password_sent_at :datetime</text>
<text text-anchor="start" x="1039.41" y="-411.3" font-family="Times,serif" font-size="14.00">remember_created_at :datetime</text>
<text text-anchor="start" x="1039.41" y="-397.3" font-family="Times,serif" font-size="14.00">sign_in_count :integer</text>
<text text-anchor="start" x="1039.41" y="-383.3" font-family="Times,serif" font-size="14.00">current_sign_in_at :datetime</text>
<text text-anchor="start" x="1039.41" y="-369.3" font-family="Times,serif" font-size="14.00">last_sign_in_at :datetime</text>
<text text-anchor="start" x="1039.41" y="-355.3" font-family="Times,serif" font-size="14.00">current_sign_in_ip :string</text>
<text text-anchor="start" x="1039.41" y="-341.3" font-family="Times,serif" font-size="14.00">last_sign_in_ip :string</text>
<text text-anchor="start" x="1039.41" y="-327.3" font-family="Times,serif" font-size="14.00">confirmation_token :string</text>
<text text-anchor="start" x="1039.41" y="-313.3" font-family="Times,serif" font-size="14.00">confirmed_at :datetime</text>
<text text-anchor="start" x="1039.41" y="-299.3" font-family="Times,serif" font-size="14.00">confirmation_sent_at :datetime</text>
<text text-anchor="start" x="1039.41" y="-285.3" font-family="Times,serif" font-size="14.00">unconfirmed_email :string</text>
<text text-anchor="start" x="1039.41" y="-271.3" font-family="Times,serif" font-size="14.00">failed_attempts :integer</text>
<text text-anchor="start" x="1039.41" y="-257.3" font-family="Times,serif" font-size="14.00">unlock_token :string</text>
<text text-anchor="start" x="1039.41" y="-243.3" font-family="Times,serif" font-size="14.00">locked_at :datetime</text>
<text text-anchor="start" x="1039.41" y="-229.3" font-family="Times,serif" font-size="14.00">created_at :datetime</text>
<text text-anchor="start" x="1039.41" y="-215.3" font-family="Times,serif" font-size="14.00">updated_at :datetime</text>
</g>
<!-- Manager&#45;&gt;User -->
<g id="edge7" class="edge"><title>Manager&#45;&gt;User</title>
<path fill="none" stroke="#e65fa0" d="M1133.69,-750.255C1133.69,-717.356 1133.69,-671.899 1133.69,-625.019"/>
<ellipse fill="none" stroke="#e65fa0" cx="1133.69" cy="-754.348" rx="4" ry="4"/>
<ellipse fill="#e65fa0" stroke="#e65fa0" cx="1133.69" cy="-620.87" rx="4" ry="4"/>
</g>
<!-- Partner&#45;&gt;Cooperation -->
<g id="edge14" class="edge"><title>Partner&#45;&gt;Cooperation</title>
<path fill="none" stroke="#2ac0f2" d="M685.984,-675.2C690.411,-666.398 694.689,-657.606 698.688,-649 723.527,-595.542 747.382,-533.259 764.432,-486.175"/>
<ellipse fill="none" stroke="#2ac0f2" cx="684.043" cy="-679.025" rx="4.00002" ry="4.00002"/>
<polygon fill="#2ac0f2" stroke="#2ac0f2" points="764.468,-486.077 772.091,-478.194 766.162,-481.373 767.857,-476.668 767.857,-476.668 767.857,-476.668 766.162,-481.373 763.624,-475.143 764.468,-486.077 764.468,-486.077"/>
</g>
<!-- Partner&#45;&gt;Cooperation -->
<g id="edge15" class="edge"><title>Partner&#45;&gt;Cooperation</title>
<path fill="none" stroke="#09d5ee" d="M658.106,-660.367C663.417,-651.343 669.366,-642.773 676.026,-635 686.809,-622.412 697.722,-629.429 708.688,-617 741.179,-580.176 761.502,-528.715 773.665,-486.757"/>
<ellipse fill="none" stroke="#09d5ee" cx="656.132" cy="-663.868" rx="4.00002" ry="4.00002"/>
<polygon fill="#09d5ee" stroke="#09d5ee" points="773.74,-486.492 780.769,-478.075 775.088,-481.677 776.436,-476.862 776.436,-476.862 776.436,-476.862 775.088,-481.677 772.102,-475.649 773.74,-486.492 773.74,-486.492"/>
<text text-anchor="middle" x="685.019" y="-637.8" font-family="Times,serif" font-size="14.00">cos</text>
</g>
<!-- Partner&#45;&gt;Gallery -->
<g id="edge10" class="edge"><title>Partner&#45;&gt;Gallery</title>
<path fill="none" stroke="#d873d0" d="M543.875,-725.11C524.415,-701.956 504.625,-675.548 489.688,-649 462.224,-600.19 441.814,-540.479 428.352,-493.396"/>
<ellipse fill="none" stroke="#d873d0" cx="546.49" cy="-728.189" rx="4.00002" ry="4.00002"/>
<polygon fill="#d873d0" stroke="#d873d0" points="428.29,-493.176 429.917,-482.332 426.938,-488.363 425.585,-483.549 425.585,-483.549 425.585,-483.549 426.938,-488.363 421.253,-484.767 428.29,-493.176 428.29,-493.176"/>
</g>
<!-- Partner&#45;&gt;Involving -->
<g id="edge12" class="edge"><title>Partner&#45;&gt;Involving</title>
<path fill="none" stroke="#ac5bbf" d="M541.27,-768.979C477.726,-738.585 388.07,-686.907 332.688,-617 297.442,-572.51 278.364,-509.573 268.651,-465.507"/>
<ellipse fill="none" stroke="#ac5bbf" cx="545.27" cy="-770.871" rx="4.00002" ry="4.00002"/>
<polygon fill="#ac5bbf" stroke="#ac5bbf" points="268.619,-465.354 270.951,-454.639 267.584,-460.462 266.549,-455.57 266.549,-455.57 266.549,-455.57 267.584,-460.462 262.146,-456.502 268.619,-465.354 268.619,-465.354"/>
</g>
<!-- Partner&#45;&gt;Photo -->
<g id="edge13" class="edge"><title>Partner&#45;&gt;Photo</title>
<path fill="none" stroke="#842bc9" d="M544.871,-676.114C536.174,-656.795 528.366,-636.702 522.688,-617 521.94,-614.404 496.151,-332.671 482.295,-180.888"/>
<polygon fill="#842bc9" stroke="#842bc9" points="544.886,-676.145 544.978,-687.11 546.976,-680.687 549.066,-685.229 549.066,-685.229 549.066,-685.229 546.976,-680.687 553.154,-683.348 544.886,-676.145 544.886,-676.145"/>
<polygon fill="#842bc9" stroke="#842bc9" points="482.268,-180.595 485.841,-170.227 481.814,-175.615 481.359,-170.636 481.359,-170.636 481.359,-170.636 481.814,-175.615 476.878,-171.045 482.268,-180.595 482.268,-180.595"/>
</g>
<!-- SliderAd -->
<g id="node11" class="node"><title>SliderAd</title>
<path fill="none" stroke="black" d="M544.075,-313.5C544.075,-313.5 687.3,-313.5 687.3,-313.5 693.3,-313.5 699.3,-319.5 699.3,-325.5 699.3,-325.5 699.3,-499.5 699.3,-499.5 699.3,-505.5 693.3,-511.5 687.3,-511.5 687.3,-511.5 544.075,-511.5 544.075,-511.5 538.075,-511.5 532.075,-505.5 532.075,-499.5 532.075,-499.5 532.075,-325.5 532.075,-325.5 532.075,-319.5 538.075,-313.5 544.075,-313.5"/>
<text text-anchor="middle" x="615.688" y="-496.3" font-family="Times,serif" font-size="14.00">SliderAd</text>
<polyline fill="none" stroke="black" points="532.075,-489.5 699.3,-489.5 "/>
<text text-anchor="start" x="540.075" y="-474.3" font-family="Times,serif" font-size="14.00">id :integer</text>
<text text-anchor="start" x="540.075" y="-460.3" font-family="Times,serif" font-size="14.00">partner_id :integer</text>
<text text-anchor="start" x="540.075" y="-446.3" font-family="Times,serif" font-size="14.00">asset_file_name :string</text>
<text text-anchor="start" x="540.075" y="-432.3" font-family="Times,serif" font-size="14.00">asset_content_type :string</text>
<text text-anchor="start" x="540.075" y="-418.3" font-family="Times,serif" font-size="14.00">asset_file_size :integer</text>
<text text-anchor="start" x="540.075" y="-404.3" font-family="Times,serif" font-size="14.00">asset_updated_at :datetime</text>
<text text-anchor="start" x="540.075" y="-390.3" font-family="Times,serif" font-size="14.00">asset_remote_url :string</text>
<text text-anchor="start" x="540.075" y="-376.3" font-family="Times,serif" font-size="14.00">text :hstore</text>
<text text-anchor="start" x="540.075" y="-362.3" font-family="Times,serif" font-size="14.00">active :boolean</text>
<text text-anchor="start" x="540.075" y="-348.3" font-family="Times,serif" font-size="14.00">active_to :date</text>
<text text-anchor="start" x="540.075" y="-334.3" font-family="Times,serif" font-size="14.00">created_at :datetime</text>
<text text-anchor="start" x="540.075" y="-320.3" font-family="Times,serif" font-size="14.00">updated_at :datetime</text>
</g>
<!-- Partner&#45;&gt;SliderAd -->
<g id="edge11" class="edge"><title>Partner&#45;&gt;SliderAd</title>
<path fill="none" stroke="#281bb5" d="M615.688,-659.19C615.688,-613.883 615.688,-564.449 615.688,-521.88"/>
<ellipse fill="none" stroke="#281bb5" cx="615.688" cy="-663.317" rx="4" ry="4"/>
<polygon fill="#281bb5" stroke="#281bb5" points="615.688,-521.78 620.188,-511.78 615.688,-516.78 615.688,-511.78 615.688,-511.78 615.688,-511.78 615.688,-516.78 611.188,-511.78 615.688,-521.78 615.688,-521.78"/>
</g>
<!-- Partner&#45;&gt;User -->
<g id="edge8" class="edge"><title>Partner&#45;&gt;User</title>
<path fill="none" stroke="#f2c76a" d="M690.103,-782.56C778.503,-758.027 926.125,-706.509 1022.69,-617 1023.61,-616.145 1024.53,-615.281 1025.44,-614.407"/>
<ellipse fill="none" stroke="#f2c76a" cx="686.122" cy="-783.651" rx="4.00001" ry="4.00001"/>
<ellipse fill="#f2c76a" stroke="#f2c76a" cx="1028.52" cy="-611.335" rx="4.00002" ry="4.00002"/>
</g>
<!-- Video -->
<g id="node13" class="node"><title>Video</title>
<path fill="none" stroke="black" d="M892.182,-355.5C892.182,-355.5 1001.19,-355.5 1001.19,-355.5 1007.19,-355.5 1013.19,-361.5 1013.19,-367.5 1013.19,-367.5 1013.19,-457.5 1013.19,-457.5 1013.19,-463.5 1007.19,-469.5 1001.19,-469.5 1001.19,-469.5 892.182,-469.5 892.182,-469.5 886.182,-469.5 880.182,-463.5 880.182,-457.5 880.182,-457.5 880.182,-367.5 880.182,-367.5 880.182,-361.5 886.182,-355.5 892.182,-355.5"/>
<text text-anchor="middle" x="946.688" y="-454.3" font-family="Times,serif" font-size="14.00">Video</text>
<polyline fill="none" stroke="black" points="880.182,-447.5 1013.19,-447.5 "/>
<text text-anchor="start" x="888.182" y="-432.3" font-family="Times,serif" font-size="14.00">id :integer</text>
<text text-anchor="start" x="888.182" y="-418.3" font-family="Times,serif" font-size="14.00">link :string</text>
<text text-anchor="start" x="888.182" y="-404.3" font-family="Times,serif" font-size="14.00">rating :integer</text>
<text text-anchor="start" x="888.182" y="-390.3" font-family="Times,serif" font-size="14.00">partner_id :integer</text>
<text text-anchor="start" x="888.182" y="-376.3" font-family="Times,serif" font-size="14.00">created_at :datetime</text>
<text text-anchor="start" x="888.182" y="-362.3" font-family="Times,serif" font-size="14.00">updated_at :datetime</text>
</g>
<!-- Partner&#45;&gt;Video -->
<g id="edge9" class="edge"><title>Partner&#45;&gt;Video</title>
<path fill="none" stroke="#f8695d" d="M689.504,-763.47C746.338,-731.599 823.148,-680.72 871.688,-617 902.528,-576.515 921.709,-522.052 932.946,-479.657"/>
<ellipse fill="none" stroke="#f8695d" cx="685.822" cy="-765.514" rx="4.00002" ry="4.00002"/>
<polygon fill="#f8695d" stroke="#f8695d" points="933.014,-479.393 939.856,-470.824 934.256,-474.55 935.497,-469.707 935.497,-469.707 935.497,-469.707 934.256,-474.55 931.138,-468.589 933.014,-479.393 933.014,-479.393"/>
</g>
</g>
</svg>
