<?xml version="1.0" encoding="UTF-8" standalone="no"?>
<!DOCTYPE svg PUBLIC "-//W3C//DTD SVG 1.1//EN"
 "http://www.w3.org/Graphics/SVG/1.1/DTD/svg11.dtd">
<!-- Generated by graphviz version 2.38.0 (20140413.2041)
 -->
<!-- Title: models_diagram Pages: 1 -->
<svg width="753pt" height="326pt"
 viewBox="0.00 0.00 753.22 326.00" xmlns="http://www.w3.org/2000/svg" xmlns:xlink="http://www.w3.org/1999/xlink">
<g id="graph0" class="graph" transform="scale(1 1) rotate(0) translate(4 322)">
<title>models_diagram</title>
<polygon fill="white" stroke="none" points="-4,4 -4,-322 749.222,-322 749.222,4 -4,4"/>
<!-- _diagram_info -->
<g id="node1" class="node"><title>_diagram_info</title>
<text text-anchor="start" x="8" y="-303.6" font-family="Times,serif" font-size="13.00">Models diagram</text>
<text text-anchor="start" x="8" y="-290.6" font-family="Times,serif" font-size="13.00">Date: Dec 05 2014 &#45; 12:13</text>
<text text-anchor="start" x="8" y="-277.6" font-family="Times,serif" font-size="13.00">Migration version: 20141204222124</text>
<text text-anchor="start" x="8" y="-264.6" font-family="Times,serif" font-size="13.00">Generated by RailRoady 1.2.0</text>
<text text-anchor="start" x="8" y="-251.6" font-family="Times,serif" font-size="13.00">http://railroady.prestonlee.com</text>
</g>
<!-- Category -->
<g id="node2" class="node"><title>Category</title>
<ellipse fill="none" stroke="black" cx="267.688" cy="-281.5" rx="42.5456" ry="18"/>
<text text-anchor="middle" x="267.688" y="-277.3" font-family="Times,serif" font-size="14.00">Category</text>
</g>
<!-- Involving -->
<g id="node6" class="node"><title>Involving</title>
<ellipse fill="none" stroke="black" cx="176.688" cy="-91" rx="44.4923" ry="18"/>
<text text-anchor="middle" x="176.688" y="-86.8" font-family="Times,serif" font-size="14.00">Involving</text>
</g>
<!-- Category&#45;&gt;Involving -->
<g id="edge1" class="edge"><title>Category&#45;&gt;Involving</title>
<path fill="none" stroke="#bb0e44" d="M256.124,-256.548C238.985,-221.043 206.961,-154.708 189.258,-118.038"/>
<ellipse fill="none" stroke="#bb0e44" cx="257.873" cy="-260.17" rx="4.00002" ry="4.00002"/>
<polygon fill="#bb0e44" stroke="#bb0e44" points="189.224,-117.967 188.929,-107.005 187.05,-113.464 184.876,-108.962 184.876,-108.962 184.876,-108.962 187.05,-113.464 180.824,-110.918 189.224,-117.967 189.224,-117.967"/>
</g>
<!-- Partner -->
<g id="node9" class="node"><title>Partner</title>
<ellipse fill="none" stroke="black" cx="410.688" cy="-177" rx="35.7887" ry="18"/>
<text text-anchor="middle" x="410.688" y="-172.8" font-family="Times,serif" font-size="14.00">Partner</text>
</g>
<!-- Category&#45;&gt;Partner -->
<g id="edge2" class="edge"><title>Category&#45;&gt;Partner</title>
<path fill="none" stroke="#65e8ab" d="M296.7,-259.705C321.751,-241.749 357.72,-215.966 382.521,-198.19"/>
<polygon fill="#65e8ab" stroke="#65e8ab" points="296.609,-259.77 285.86,-261.938 292.545,-262.683 288.481,-265.596 288.481,-265.596 288.481,-265.596 292.545,-262.683 291.103,-269.253 296.609,-259.77 296.609,-259.77"/>
<polygon fill="#65e8ab" stroke="#65e8ab" points="382.664,-198.087 393.413,-195.919 386.727,-195.174 390.791,-192.261 390.791,-192.261 390.791,-192.261 386.727,-195.174 388.17,-188.604 382.664,-198.087 382.664,-198.087"/>
</g>
<!-- Cooperation -->
<g id="node3" class="node"><title>Cooperation</title>
<ellipse fill="none" stroke="black" cx="524.688" cy="-91" rx="53.6471" ry="18"/>
<text text-anchor="middle" x="524.688" y="-86.8" font-family="Times,serif" font-size="14.00">Cooperation</text>
</g>
<!-- Day -->
<g id="node4" class="node"><title>Day</title>
<ellipse fill="none" stroke="black" cx="356.688" cy="-281.5" rx="27" ry="18"/>
<text text-anchor="middle" x="356.688" y="-277.3" font-family="Times,serif" font-size="14.00">Day</text>
</g>
<!-- Day&#45;&gt;Partner -->
<g id="edge3" class="edge"><title>Day&#45;&gt;Partner</title>
<path fill="none" stroke="#7cb81c" d="M370.068,-255.102C378.282,-239.511 388.774,-219.595 397.037,-203.911"/>
<polygon fill="#7cb81c" stroke="#7cb81c" points="370.025,-255.184 361.382,-261.934 367.694,-259.608 365.364,-264.032 365.364,-264.032 365.364,-264.032 367.694,-259.608 369.345,-266.129 370.025,-255.184 370.025,-255.184"/>
<polygon fill="#7cb81c" stroke="#7cb81c" points="397.193,-203.615 405.835,-196.866 399.523,-199.192 401.854,-194.768 401.854,-194.768 401.854,-194.768 399.523,-199.192 397.873,-192.671 397.193,-203.615 397.193,-203.615"/>
</g>
<!-- Gallery -->
<g id="node5" class="node"><title>Gallery</title>
<ellipse fill="none" stroke="black" cx="275.688" cy="-91" rx="36.7489" ry="18"/>
<text text-anchor="middle" x="275.688" y="-86.8" font-family="Times,serif" font-size="14.00">Gallery</text>
</g>
<!-- Photo -->
<g id="node10" class="node"><title>Photo</title>
<ellipse fill="none" stroke="black" cx="317.688" cy="-18" rx="30.9967" ry="18"/>
<text text-anchor="middle" x="317.688" y="-13.8" font-family="Times,serif" font-size="14.00">Photo</text>
</g>
<!-- Gallery&#45;&gt;Photo -->
<g id="edge4" class="edge"><title>Gallery&#45;&gt;Photo</title>
<path fill="none" stroke="#6b2e70" d="M289.626,-66.4374C293.861,-59.2787 298.529,-51.3869 302.823,-44.1292"/>
<ellipse fill="none" stroke="#6b2e70" cx="287.466" cy="-70.09" rx="4.00002" ry="4.00002"/>
<polygon fill="#6b2e70" stroke="#6b2e70" points="302.908,-43.9848 311.872,-37.6691 305.454,-39.6814 307.999,-35.378 307.999,-35.378 307.999,-35.378 305.454,-39.6814 304.126,-33.0868 302.908,-43.9848 302.908,-43.9848"/>
</g>
<!-- Location -->
<g id="node7" class="node"><title>Location</title>
<ellipse fill="none" stroke="black" cx="443.688" cy="-281.5" rx="41.5766" ry="18"/>
<text text-anchor="middle" x="443.688" y="-277.3" font-family="Times,serif" font-size="14.00">Location</text>
</g>
<!-- Location&#45;&gt;Partner -->
<g id="edge5" class="edge"><title>Location&#45;&gt;Partner</title>
<path fill="none" stroke="#54ab77" d="M435.785,-255.952C430.807,-240.493 424.382,-220.536 419.279,-204.686"/>
<ellipse fill="none" stroke="#54ab77" cx="437.013" cy="-259.767" rx="4.00001" ry="4.00001"/>
<polygon fill="#54ab77" stroke="#54ab77" points="419.21,-204.47 420.429,-193.572 417.677,-199.71 416.145,-194.951 416.145,-194.951 416.145,-194.951 417.677,-199.71 411.862,-196.33 419.21,-204.47 419.21,-204.47"/>
<text text-anchor="middle" x="447.853" y="-215.8" font-family="Times,serif" font-size="14.00">lives_in</text>
</g>
<!-- Location&#45;&gt;Partner -->
<g id="edge6" class="edge"><title>Location&#45;&gt;Partner</title>
<path fill="none" stroke="#a39921" d="M433.83,-253.79C430.784,-245.267 427.495,-235.771 424.688,-227 422.378,-219.784 420.047,-211.912 417.967,-204.631"/>
<polygon fill="#a39921" stroke="#a39921" points="433.849,-253.842 433.017,-264.776 435.549,-258.544 437.249,-263.246 437.249,-263.246 437.249,-263.246 435.549,-258.544 441.481,-261.716 433.849,-253.842 433.849,-253.842"/>
<polygon fill="#a39921" stroke="#a39921" points="417.927,-204.488 419.555,-193.644 416.575,-199.674 415.223,-194.861 415.223,-194.861 415.223,-194.861 416.575,-199.674 410.89,-196.078 417.927,-204.488 417.927,-204.488"/>
</g>
<!-- Manager -->
<g id="node8" class="node"><title>Manager</title>
<ellipse fill="none" stroke="black" cx="703.688" cy="-177" rx="41.5679" ry="18"/>
<text text-anchor="middle" x="703.688" y="-172.8" font-family="Times,serif" font-size="14.00">Manager</text>
</g>
<!-- User -->
<g id="node12" class="node"><title>User</title>
<ellipse fill="none" stroke="black" cx="703.688" cy="-91" rx="27" ry="18"/>
<text text-anchor="middle" x="703.688" y="-86.8" font-family="Times,serif" font-size="14.00">User</text>
</g>
<!-- Manager&#45;&gt;User -->
<g id="edge7" class="edge"><title>Manager&#45;&gt;User</title>
<path fill="none" stroke="#93e4d8" d="M703.688,-150.257C703.688,-139.815 703.688,-127.788 703.688,-117.383"/>
<ellipse fill="none" stroke="#93e4d8" cx="703.688" cy="-154.595" rx="4" ry="4"/>
<ellipse fill="#93e4d8" stroke="#93e4d8" cx="703.688" cy="-113.095" rx="4" ry="4"/>
</g>
<!-- Partner&#45;&gt;Cooperation -->
<g id="edge14" class="edge"><title>Partner&#45;&gt;Cooperation</title>
<path fill="none" stroke="#ee3c8f" d="M444.683,-161.348C455.996,-155.746 468.339,-148.804 478.688,-141 488.007,-133.972 497.066,-124.955 504.646,-116.576"/>
<ellipse fill="none" stroke="#ee3c8f" cx="441.035" cy="-163.1" rx="4.00002" ry="4.00002"/>
<polygon fill="#ee3c8f" stroke="#ee3c8f" points="504.84,-116.354 514.809,-111.786 508.131,-112.589 511.421,-108.824 511.421,-108.824 511.421,-108.824 508.131,-112.589 508.032,-105.863 504.84,-116.354 504.84,-116.354"/>
</g>
<!-- Partner&#45;&gt;Cooperation -->
<g id="edge15" class="edge"><title>Partner&#45;&gt;Cooperation</title>
<path fill="none" stroke="#e1839b" d="M428.308,-153.734C436.159,-144.718 445.912,-134.654 456.026,-127 464.348,-120.702 473.973,-114.993 483.334,-110.098"/>
<ellipse fill="none" stroke="#e1839b" cx="425.534" cy="-157.011" rx="4.00002" ry="4.00002"/>
<polygon fill="#e1839b" stroke="#e1839b" points="483.608,-109.961 494.565,-109.507 488.079,-107.722 492.55,-105.484 492.55,-105.484 492.55,-105.484 488.079,-107.722 490.535,-101.46 483.608,-109.961 483.608,-109.961"/>
<text text-anchor="middle" x="465.019" y="-129.8" font-family="Times,serif" font-size="14.00">cos</text>
</g>
<!-- Partner&#45;&gt;Gallery -->
<g id="edge10" class="edge"><title>Partner&#45;&gt;Gallery</title>
<path fill="none" stroke="#cc8e37" d="M373.296,-163.833C358.186,-158.064 340.979,-150.365 326.688,-141 315.885,-133.921 305.349,-124.387 296.685,-115.61"/>
<ellipse fill="none" stroke="#cc8e37" cx="377.227" cy="-165.286" rx="4.00001" ry="4.00001"/>
<polygon fill="#cc8e37" stroke="#cc8e37" points="296.495,-115.41 292.85,-105.067 293.044,-111.791 289.593,-108.173 289.593,-108.173 289.593,-108.173 293.044,-111.791 286.337,-111.278 296.495,-115.41 296.495,-115.41"/>
</g>
<!-- Partner&#45;&gt;Involving -->
<g id="edge12" class="edge"><title>Partner&#45;&gt;Involving</title>
<path fill="none" stroke="#dcde3a" d="M373.431,-163.995C353.302,-157.406 328.058,-148.973 305.688,-141 275.904,-130.385 242.544,-117.691 217.21,-107.883"/>
<ellipse fill="none" stroke="#dcde3a" cx="377.355" cy="-165.276" rx="4.00001" ry="4.00001"/>
<polygon fill="#dcde3a" stroke="#dcde3a" points="216.895,-107.761 209.202,-99.9471 212.234,-105.952 207.573,-104.142 207.573,-104.142 207.573,-104.142 212.234,-105.952 205.944,-108.337 216.895,-107.761 216.895,-107.761"/>
</g>
<!-- Partner&#45;&gt;Photo -->
<g id="edge13" class="edge"><title>Partner&#45;&gt;Photo</title>
<path fill="none" stroke="#772392" d="M390.545,-152.152C380.584,-139.738 368.78,-124.044 359.688,-109 347.271,-88.4556 335.938,-63.6393 328.182,-45.2733"/>
<polygon fill="#772392" stroke="#772392" points="390.768,-152.426 393.604,-163.019 393.93,-156.3 397.091,-160.174 397.091,-160.174 397.091,-160.174 393.93,-156.3 400.577,-157.329 390.768,-152.426 390.768,-152.426"/>
<polygon fill="#772392" stroke="#772392" points="328.086,-45.0399 328.415,-34.079 326.172,-40.4208 324.258,-35.8017 324.258,-35.8017 324.258,-35.8017 326.172,-40.4208 320.1,-37.5244 328.086,-45.0399 328.086,-45.0399"/>
</g>
<!-- SliderAd -->
<g id="node11" class="node"><title>SliderAd</title>
<ellipse fill="none" stroke="black" cx="410.688" cy="-91" rx="42.0784" ry="18"/>
<text text-anchor="middle" x="410.688" y="-86.8" font-family="Times,serif" font-size="14.00">SliderAd</text>
</g>
<!-- Partner&#45;&gt;SliderAd -->
<g id="edge11" class="edge"><title>Partner&#45;&gt;SliderAd</title>
<path fill="none" stroke="#713dab" d="M410.688,-150.257C410.688,-140.441 410.688,-129.226 410.688,-119.273"/>
<ellipse fill="none" stroke="#713dab" cx="410.688" cy="-154.595" rx="4" ry="4"/>
<polygon fill="#713dab" stroke="#713dab" points="410.688,-119.095 415.188,-109.095 410.688,-114.095 410.688,-109.095 410.688,-109.095 410.688,-109.095 410.688,-114.095 406.188,-109.095 410.688,-119.095 410.688,-119.095"/>
</g>
<!-- Partner&#45;&gt;User -->
<g id="edge8" class="edge"><title>Partner&#45;&gt;User</title>
<path fill="none" stroke="#2d9ba1" d="M451.207,-167.885C502.452,-157.067 593.014,-136.098 667.688,-109 670.157,-108.104 672.686,-107.1 675.203,-106.038"/>
<ellipse fill="none" stroke="#2d9ba1" cx="447.243" cy="-168.714" rx="4.00001" ry="4.00001"/>
<ellipse fill="#2d9ba1" stroke="#2d9ba1" cx="678.99" cy="-104.359" rx="4.00002" ry="4.00002"/>
</g>
<!-- Video -->
<g id="node13" class="node"><title>Video</title>
<ellipse fill="none" stroke="black" cx="627.688" cy="-91" rx="31.3854" ry="18"/>
<text text-anchor="middle" x="627.688" y="-86.8" font-family="Times,serif" font-size="14.00">Video</text>
</g>
<!-- Partner&#45;&gt;Video -->
<g id="edge9" class="edge"><title>Partner&#45;&gt;Video</title>
<path fill="none" stroke="#ae46ed" d="M446.487,-162.927C482.356,-149.716 539.074,-128.522 587.688,-109 589.736,-108.178 591.838,-107.321 593.955,-106.449"/>
<ellipse fill="none" stroke="#ae46ed" cx="442.473" cy="-164.403" rx="4.00001" ry="4.00001"/>
<polygon fill="#ae46ed" stroke="#ae46ed" points="593.985,-106.437 604.947,-106.737 598.599,-104.511 603.213,-102.585 603.213,-102.585 603.213,-102.585 598.599,-104.511 601.48,-98.4318 593.985,-106.437 593.985,-106.437"/>
</g>
</g>
</svg>
